<mxfile host="app.diagrams.net" agent="Mozilla/5.0 (Windows NT 10.0; Win64; x64) AppleWebKit/537.36 (KHTML, like Gecko) Chrome/127.0.0.0 Safari/537.36" version="24.7.7">
  <diagram name="Page-1" id="edf60f1a-56cd-e834-aa8a-f176f3a09ee4">
    <mxGraphModel dx="2893" dy="965" grid="1" gridSize="10" guides="1" tooltips="1" connect="1" arrows="1" fold="1" page="1" pageScale="1" pageWidth="1100" pageHeight="850" background="none" math="0" shadow="0">
      <root>
        <mxCell id="0" />
        <mxCell id="1" parent="0" />
        <mxCell id="RZjBoXwKES9GOJnDem_J-22" style="edgeStyle=orthogonalEdgeStyle;rounded=0;orthogonalLoop=1;jettySize=auto;html=1;exitX=1;exitY=0.5;exitDx=0;exitDy=0;exitPerimeter=0;entryX=0;entryY=0.5;entryDx=0;entryDy=0;" edge="1" parent="1" source="RZjBoXwKES9GOJnDem_J-23" target="RZjBoXwKES9GOJnDem_J-24">
          <mxGeometry relative="1" as="geometry" />
        </mxCell>
        <mxCell id="RZjBoXwKES9GOJnDem_J-23" value="Base de dados" style="shape=cylinder3;whiteSpace=wrap;html=1;boundedLbl=1;backgroundOutline=1;size=15;fillColor=#ffe6cc;strokeColor=#d79b00;" vertex="1" parent="1">
          <mxGeometry x="130" y="250" width="60" height="80" as="geometry" />
        </mxCell>
        <mxCell id="RZjBoXwKES9GOJnDem_J-24" value="Consumo da base de dados" style="rounded=1;whiteSpace=wrap;html=1;fillColor=#dae8fc;strokeColor=#6c8ebf;" vertex="1" parent="1">
          <mxGeometry x="250" y="260" width="120" height="60" as="geometry" />
        </mxCell>
        <mxCell id="RZjBoXwKES9GOJnDem_J-25" style="edgeStyle=orthogonalEdgeStyle;rounded=0;orthogonalLoop=1;jettySize=auto;html=1;" edge="1" parent="1" source="RZjBoXwKES9GOJnDem_J-26" target="RZjBoXwKES9GOJnDem_J-23">
          <mxGeometry relative="1" as="geometry" />
        </mxCell>
        <mxCell id="RZjBoXwKES9GOJnDem_J-26" value="ínicio" style="strokeWidth=2;html=1;shape=mxgraph.flowchart.start_2;whiteSpace=wrap;fillColor=#f5f5f5;strokeColor=#666666;fontColor=#333333;" vertex="1" parent="1">
          <mxGeometry x="-15" y="265" width="50" height="50" as="geometry" />
        </mxCell>
        <mxCell id="RZjBoXwKES9GOJnDem_J-27" value="" style="edgeStyle=orthogonalEdgeStyle;rounded=0;orthogonalLoop=1;jettySize=auto;html=1;exitX=1;exitY=0.5;exitDx=0;exitDy=0;" edge="1" parent="1" source="RZjBoXwKES9GOJnDem_J-24" target="RZjBoXwKES9GOJnDem_J-29">
          <mxGeometry relative="1" as="geometry">
            <mxPoint x="460" y="290" as="targetPoint" />
            <mxPoint x="370" y="290" as="sourcePoint" />
          </mxGeometry>
        </mxCell>
        <mxCell id="RZjBoXwKES9GOJnDem_J-28" style="edgeStyle=orthogonalEdgeStyle;rounded=0;orthogonalLoop=1;jettySize=auto;html=1;exitX=1;exitY=0.5;exitDx=0;exitDy=0;entryX=0;entryY=0.5;entryDx=0;entryDy=0;" edge="1" parent="1" source="RZjBoXwKES9GOJnDem_J-29" target="RZjBoXwKES9GOJnDem_J-30">
          <mxGeometry relative="1" as="geometry" />
        </mxCell>
        <mxCell id="RZjBoXwKES9GOJnDem_J-156" style="edgeStyle=orthogonalEdgeStyle;rounded=0;orthogonalLoop=1;jettySize=auto;html=1;exitX=0.5;exitY=1;exitDx=0;exitDy=0;" edge="1" parent="1" source="RZjBoXwKES9GOJnDem_J-29">
          <mxGeometry relative="1" as="geometry">
            <mxPoint x="480" y="340" as="targetPoint" />
          </mxGeometry>
        </mxCell>
        <mxCell id="RZjBoXwKES9GOJnDem_J-29" value="Gerar figuras&lt;div&gt;vizualização Brasil&lt;/div&gt;" style="rounded=1;whiteSpace=wrap;html=1;fillColor=#dae8fc;strokeColor=#6c8ebf;" vertex="1" parent="1">
          <mxGeometry x="420" y="260" width="120" height="60" as="geometry" />
        </mxCell>
        <mxCell id="RZjBoXwKES9GOJnDem_J-30" value="Exibir dados no dashboard" style="rounded=1;whiteSpace=wrap;html=1;fillColor=#dae8fc;strokeColor=#6c8ebf;" vertex="1" parent="1">
          <mxGeometry x="590" y="260" width="120" height="60" as="geometry" />
        </mxCell>
        <mxCell id="RZjBoXwKES9GOJnDem_J-33" style="edgeStyle=orthogonalEdgeStyle;rounded=0;orthogonalLoop=1;jettySize=auto;html=1;exitX=0.5;exitY=1;exitDx=0;exitDy=0;exitPerimeter=0;entryX=0.5;entryY=0;entryDx=0;entryDy=0;entryPerimeter=0;" edge="1" parent="1" source="RZjBoXwKES9GOJnDem_J-35" target="RZjBoXwKES9GOJnDem_J-47">
          <mxGeometry relative="1" as="geometry">
            <mxPoint x="650" y="835" as="targetPoint" />
          </mxGeometry>
        </mxCell>
        <mxCell id="RZjBoXwKES9GOJnDem_J-34" value="Não" style="edgeLabel;html=1;align=center;verticalAlign=middle;resizable=0;points=[];" vertex="1" connectable="0" parent="RZjBoXwKES9GOJnDem_J-33">
          <mxGeometry x="-0.1305" y="1" relative="1" as="geometry">
            <mxPoint x="-1" y="16" as="offset" />
          </mxGeometry>
        </mxCell>
        <mxCell id="RZjBoXwKES9GOJnDem_J-35" value="filtro por&lt;div&gt;município?&lt;/div&gt;" style="strokeWidth=2;html=1;shape=mxgraph.flowchart.decision;whiteSpace=wrap;fillColor=#fff2cc;strokeColor=#d6b656;" vertex="1" parent="1">
          <mxGeometry x="610" y="580" width="80" height="80" as="geometry" />
        </mxCell>
        <mxCell id="RZjBoXwKES9GOJnDem_J-36" style="edgeStyle=orthogonalEdgeStyle;rounded=0;orthogonalLoop=1;jettySize=auto;html=1;exitX=0.5;exitY=1;exitDx=0;exitDy=0;entryX=0.5;entryY=0;entryDx=0;entryDy=0;entryPerimeter=0;" edge="1" parent="1" source="RZjBoXwKES9GOJnDem_J-30" target="RZjBoXwKES9GOJnDem_J-35">
          <mxGeometry relative="1" as="geometry" />
        </mxCell>
        <mxCell id="RZjBoXwKES9GOJnDem_J-58" value="Ação" style="edgeLabel;html=1;align=center;verticalAlign=middle;resizable=0;points=[];" vertex="1" connectable="0" parent="RZjBoXwKES9GOJnDem_J-36">
          <mxGeometry x="-0.28" y="3" relative="1" as="geometry">
            <mxPoint as="offset" />
          </mxGeometry>
        </mxCell>
        <mxCell id="RZjBoXwKES9GOJnDem_J-120" style="edgeStyle=orthogonalEdgeStyle;rounded=0;orthogonalLoop=1;jettySize=auto;html=1;exitX=0;exitY=0.5;exitDx=0;exitDy=0;exitPerimeter=0;" edge="1" parent="1" source="RZjBoXwKES9GOJnDem_J-43">
          <mxGeometry relative="1" as="geometry">
            <mxPoint x="430" y="620" as="targetPoint" />
          </mxGeometry>
        </mxCell>
        <mxCell id="RZjBoXwKES9GOJnDem_J-43" value="Base de dados" style="shape=cylinder3;whiteSpace=wrap;html=1;boundedLbl=1;backgroundOutline=1;size=15;fillColor=#ffe6cc;strokeColor=#d79b00;" vertex="1" parent="1">
          <mxGeometry x="480" y="580" width="60" height="80" as="geometry" />
        </mxCell>
        <mxCell id="RZjBoXwKES9GOJnDem_J-121" style="edgeStyle=orthogonalEdgeStyle;rounded=0;orthogonalLoop=1;jettySize=auto;html=1;exitX=0;exitY=0.5;exitDx=0;exitDy=0;entryX=1;entryY=0.5;entryDx=0;entryDy=0;" edge="1" parent="1" source="RZjBoXwKES9GOJnDem_J-44" target="RZjBoXwKES9GOJnDem_J-48">
          <mxGeometry relative="1" as="geometry" />
        </mxCell>
        <mxCell id="RZjBoXwKES9GOJnDem_J-155" style="edgeStyle=orthogonalEdgeStyle;rounded=0;orthogonalLoop=1;jettySize=auto;html=1;exitX=0.5;exitY=1;exitDx=0;exitDy=0;" edge="1" parent="1" source="RZjBoXwKES9GOJnDem_J-44">
          <mxGeometry relative="1" as="geometry">
            <mxPoint x="370" y="680" as="targetPoint" />
          </mxGeometry>
        </mxCell>
        <mxCell id="RZjBoXwKES9GOJnDem_J-44" value="Consumo da base de dados" style="rounded=1;whiteSpace=wrap;html=1;fillColor=#dae8fc;strokeColor=#6c8ebf;" vertex="1" parent="1">
          <mxGeometry x="310" y="590" width="120" height="60" as="geometry" />
        </mxCell>
        <mxCell id="RZjBoXwKES9GOJnDem_J-119" style="edgeStyle=orthogonalEdgeStyle;rounded=0;orthogonalLoop=1;jettySize=auto;html=1;exitX=0;exitY=0.5;exitDx=0;exitDy=0;exitPerimeter=0;entryX=1;entryY=0.5;entryDx=0;entryDy=0;" edge="1" parent="1" source="RZjBoXwKES9GOJnDem_J-45" target="RZjBoXwKES9GOJnDem_J-50">
          <mxGeometry relative="1" as="geometry" />
        </mxCell>
        <mxCell id="RZjBoXwKES9GOJnDem_J-45" value="Base de dados" style="shape=cylinder3;whiteSpace=wrap;html=1;boundedLbl=1;backgroundOutline=1;size=15;fillColor=#ffe6cc;strokeColor=#d79b00;" vertex="1" parent="1">
          <mxGeometry x="490" y="870" width="60" height="80" as="geometry" />
        </mxCell>
        <mxCell id="RZjBoXwKES9GOJnDem_J-47" value="filtro por estado?" style="strokeWidth=2;html=1;shape=mxgraph.flowchart.decision;whiteSpace=wrap;fillColor=#fff2cc;strokeColor=#d6b656;" vertex="1" parent="1">
          <mxGeometry x="610" y="870" width="80" height="80" as="geometry" />
        </mxCell>
        <mxCell id="RZjBoXwKES9GOJnDem_J-122" style="edgeStyle=orthogonalEdgeStyle;rounded=0;orthogonalLoop=1;jettySize=auto;html=1;exitX=0;exitY=0.5;exitDx=0;exitDy=0;entryX=1;entryY=0.5;entryDx=0;entryDy=0;" edge="1" parent="1" source="RZjBoXwKES9GOJnDem_J-48" target="RZjBoXwKES9GOJnDem_J-49">
          <mxGeometry relative="1" as="geometry" />
        </mxCell>
        <mxCell id="RZjBoXwKES9GOJnDem_J-48" value="Gerar figuras&lt;div&gt;vizualização estados&lt;/div&gt;" style="rounded=1;whiteSpace=wrap;html=1;fillColor=#dae8fc;strokeColor=#6c8ebf;" vertex="1" parent="1">
          <mxGeometry x="150" y="590" width="120" height="60" as="geometry" />
        </mxCell>
        <mxCell id="RZjBoXwKES9GOJnDem_J-49" value="Exibir dados no dashboard" style="rounded=1;whiteSpace=wrap;html=1;fillColor=#dae8fc;strokeColor=#6c8ebf;" vertex="1" parent="1">
          <mxGeometry x="-5" y="590" width="120" height="60" as="geometry" />
        </mxCell>
        <mxCell id="RZjBoXwKES9GOJnDem_J-117" style="edgeStyle=orthogonalEdgeStyle;rounded=0;orthogonalLoop=1;jettySize=auto;html=1;exitX=0;exitY=0.5;exitDx=0;exitDy=0;entryX=1;entryY=0.5;entryDx=0;entryDy=0;" edge="1" parent="1" source="RZjBoXwKES9GOJnDem_J-50" target="RZjBoXwKES9GOJnDem_J-51">
          <mxGeometry relative="1" as="geometry" />
        </mxCell>
        <mxCell id="RZjBoXwKES9GOJnDem_J-154" style="edgeStyle=orthogonalEdgeStyle;rounded=0;orthogonalLoop=1;jettySize=auto;html=1;exitX=0.5;exitY=1;exitDx=0;exitDy=0;" edge="1" parent="1" source="RZjBoXwKES9GOJnDem_J-50">
          <mxGeometry relative="1" as="geometry">
            <mxPoint x="398" y="960" as="targetPoint" />
          </mxGeometry>
        </mxCell>
        <mxCell id="RZjBoXwKES9GOJnDem_J-50" value="Consumo da base de dados" style="rounded=1;whiteSpace=wrap;html=1;fillColor=#dae8fc;strokeColor=#6c8ebf;" vertex="1" parent="1">
          <mxGeometry x="337.5" y="880" width="120" height="60" as="geometry" />
        </mxCell>
        <mxCell id="RZjBoXwKES9GOJnDem_J-118" style="edgeStyle=orthogonalEdgeStyle;rounded=0;orthogonalLoop=1;jettySize=auto;html=1;exitX=0;exitY=0.5;exitDx=0;exitDy=0;entryX=1;entryY=0.5;entryDx=0;entryDy=0;" edge="1" parent="1" source="RZjBoXwKES9GOJnDem_J-51" target="RZjBoXwKES9GOJnDem_J-52">
          <mxGeometry relative="1" as="geometry" />
        </mxCell>
        <mxCell id="RZjBoXwKES9GOJnDem_J-51" value="Gerar figuras&lt;div&gt;vizualização município&lt;/div&gt;" style="rounded=1;whiteSpace=wrap;html=1;fillColor=#dae8fc;strokeColor=#6c8ebf;" vertex="1" parent="1">
          <mxGeometry x="177.5" y="880" width="120" height="60" as="geometry" />
        </mxCell>
        <mxCell id="RZjBoXwKES9GOJnDem_J-52" value="Exibir dados no dashboard" style="rounded=1;whiteSpace=wrap;html=1;fillColor=#dae8fc;strokeColor=#6c8ebf;" vertex="1" parent="1">
          <mxGeometry x="22.5" y="880" width="120" height="60" as="geometry" />
        </mxCell>
        <mxCell id="RZjBoXwKES9GOJnDem_J-83" style="edgeStyle=orthogonalEdgeStyle;rounded=0;orthogonalLoop=1;jettySize=auto;html=1;exitX=0;exitY=0.5;exitDx=0;exitDy=0;" edge="1" parent="1" source="RZjBoXwKES9GOJnDem_J-54" target="RZjBoXwKES9GOJnDem_J-55">
          <mxGeometry relative="1" as="geometry" />
        </mxCell>
        <mxCell id="RZjBoXwKES9GOJnDem_J-54" value="Gera mapa coroplético Brasil" style="rounded=1;whiteSpace=wrap;html=1;fillColor=#dae8fc;strokeColor=#6c8ebf;" vertex="1" parent="1">
          <mxGeometry x="420" y="350" width="120" height="60" as="geometry" />
        </mxCell>
        <mxCell id="RZjBoXwKES9GOJnDem_J-84" style="edgeStyle=orthogonalEdgeStyle;rounded=0;orthogonalLoop=1;jettySize=auto;html=1;exitX=0;exitY=0.5;exitDx=0;exitDy=0;entryX=1;entryY=0.5;entryDx=0;entryDy=0;" edge="1" parent="1" source="RZjBoXwKES9GOJnDem_J-55" target="RZjBoXwKES9GOJnDem_J-59">
          <mxGeometry relative="1" as="geometry" />
        </mxCell>
        <mxCell id="RZjBoXwKES9GOJnDem_J-55" value="Gera histograma amenidades subcategorias" style="rounded=1;whiteSpace=wrap;html=1;fillColor=#dae8fc;strokeColor=#6c8ebf;" vertex="1" parent="1">
          <mxGeometry x="290" y="350" width="120" height="60" as="geometry" />
        </mxCell>
        <mxCell id="RZjBoXwKES9GOJnDem_J-86" style="edgeStyle=orthogonalEdgeStyle;rounded=0;orthogonalLoop=1;jettySize=auto;html=1;exitX=0;exitY=0.5;exitDx=0;exitDy=0;entryX=1;entryY=0.5;entryDx=0;entryDy=0;" edge="1" parent="1" source="RZjBoXwKES9GOJnDem_J-56" target="RZjBoXwKES9GOJnDem_J-57">
          <mxGeometry relative="1" as="geometry" />
        </mxCell>
        <mxCell id="RZjBoXwKES9GOJnDem_J-90" style="edgeStyle=orthogonalEdgeStyle;rounded=0;orthogonalLoop=1;jettySize=auto;html=1;exitX=0.5;exitY=1;exitDx=0;exitDy=0;entryX=0.5;entryY=0;entryDx=0;entryDy=0;" edge="1" parent="1" source="RZjBoXwKES9GOJnDem_J-56" target="RZjBoXwKES9GOJnDem_J-63">
          <mxGeometry relative="1" as="geometry" />
        </mxCell>
        <mxCell id="RZjBoXwKES9GOJnDem_J-56" value="Gera histograma amenidades categoria" style="rounded=1;whiteSpace=wrap;html=1;fillColor=#dae8fc;strokeColor=#6c8ebf;" vertex="1" parent="1">
          <mxGeometry x="420" y="420" width="120" height="60" as="geometry" />
        </mxCell>
        <mxCell id="RZjBoXwKES9GOJnDem_J-87" style="edgeStyle=orthogonalEdgeStyle;rounded=0;orthogonalLoop=1;jettySize=auto;html=1;exitX=0;exitY=0.5;exitDx=0;exitDy=0;entryX=1;entryY=0.5;entryDx=0;entryDy=0;" edge="1" parent="1" source="RZjBoXwKES9GOJnDem_J-57" target="RZjBoXwKES9GOJnDem_J-61">
          <mxGeometry relative="1" as="geometry" />
        </mxCell>
        <mxCell id="RZjBoXwKES9GOJnDem_J-57" value="Cartões de informações da amenidades" style="rounded=1;whiteSpace=wrap;html=1;fillColor=#dae8fc;strokeColor=#6c8ebf;" vertex="1" parent="1">
          <mxGeometry x="290" y="420" width="120" height="60" as="geometry" />
        </mxCell>
        <mxCell id="RZjBoXwKES9GOJnDem_J-85" style="edgeStyle=orthogonalEdgeStyle;rounded=0;orthogonalLoop=1;jettySize=auto;html=1;exitX=0;exitY=0.5;exitDx=0;exitDy=0;entryX=1;entryY=0.5;entryDx=0;entryDy=0;" edge="1" parent="1" source="RZjBoXwKES9GOJnDem_J-59" target="RZjBoXwKES9GOJnDem_J-60">
          <mxGeometry relative="1" as="geometry" />
        </mxCell>
        <mxCell id="RZjBoXwKES9GOJnDem_J-59" value="Gráfio de barras das amenidades por região" style="rounded=1;whiteSpace=wrap;html=1;fillColor=#dae8fc;strokeColor=#6c8ebf;" vertex="1" parent="1">
          <mxGeometry x="160" y="350" width="120" height="60" as="geometry" />
        </mxCell>
        <mxCell id="RZjBoXwKES9GOJnDem_J-89" style="edgeStyle=orthogonalEdgeStyle;rounded=0;orthogonalLoop=1;jettySize=auto;html=1;exitX=0.5;exitY=1;exitDx=0;exitDy=0;entryX=0.5;entryY=0;entryDx=0;entryDy=0;" edge="1" parent="1" source="RZjBoXwKES9GOJnDem_J-60" target="RZjBoXwKES9GOJnDem_J-62">
          <mxGeometry relative="1" as="geometry" />
        </mxCell>
        <mxCell id="RZjBoXwKES9GOJnDem_J-60" value="Gráfico de dispersão dispersão dos índices" style="rounded=1;whiteSpace=wrap;html=1;fillColor=#dae8fc;strokeColor=#6c8ebf;" vertex="1" parent="1">
          <mxGeometry x="30" y="350" width="120" height="60" as="geometry" />
        </mxCell>
        <mxCell id="RZjBoXwKES9GOJnDem_J-88" style="edgeStyle=orthogonalEdgeStyle;rounded=0;orthogonalLoop=1;jettySize=auto;html=1;exitX=0;exitY=0.5;exitDx=0;exitDy=0;entryX=1;entryY=0.5;entryDx=0;entryDy=0;" edge="1" parent="1" source="RZjBoXwKES9GOJnDem_J-61" target="RZjBoXwKES9GOJnDem_J-62">
          <mxGeometry relative="1" as="geometry" />
        </mxCell>
        <mxCell id="RZjBoXwKES9GOJnDem_J-61" value="Subpots de mapas de acordo com índice da região" style="rounded=1;whiteSpace=wrap;html=1;fillColor=#dae8fc;strokeColor=#6c8ebf;" vertex="1" parent="1">
          <mxGeometry x="160" y="420" width="120" height="60" as="geometry" />
        </mxCell>
        <mxCell id="RZjBoXwKES9GOJnDem_J-62" value="Gráfico de pizza de quantidade de hexágonos&amp;nbsp;" style="rounded=1;whiteSpace=wrap;html=1;fillColor=#dae8fc;strokeColor=#6c8ebf;" vertex="1" parent="1">
          <mxGeometry x="30" y="420" width="120" height="60" as="geometry" />
        </mxCell>
        <mxCell id="RZjBoXwKES9GOJnDem_J-91" style="edgeStyle=orthogonalEdgeStyle;rounded=0;orthogonalLoop=1;jettySize=auto;html=1;exitX=0;exitY=0.5;exitDx=0;exitDy=0;entryX=1;entryY=0.5;entryDx=0;entryDy=0;" edge="1" parent="1" source="RZjBoXwKES9GOJnDem_J-63" target="RZjBoXwKES9GOJnDem_J-64">
          <mxGeometry relative="1" as="geometry" />
        </mxCell>
        <mxCell id="RZjBoXwKES9GOJnDem_J-63" value="Gera histograma amenidades categoria" style="rounded=1;whiteSpace=wrap;html=1;fillColor=#dae8fc;strokeColor=#6c8ebf;" vertex="1" parent="1">
          <mxGeometry x="420" y="490" width="120" height="60" as="geometry" />
        </mxCell>
        <mxCell id="RZjBoXwKES9GOJnDem_J-92" style="edgeStyle=orthogonalEdgeStyle;rounded=0;orthogonalLoop=1;jettySize=auto;html=1;exitX=0;exitY=0.5;exitDx=0;exitDy=0;entryX=1;entryY=0.5;entryDx=0;entryDy=0;" edge="1" parent="1" source="RZjBoXwKES9GOJnDem_J-64" target="RZjBoXwKES9GOJnDem_J-65">
          <mxGeometry relative="1" as="geometry" />
        </mxCell>
        <mxCell id="RZjBoXwKES9GOJnDem_J-64" value="Gráfico de barras raqueamento do menor índice" style="rounded=1;whiteSpace=wrap;html=1;fillColor=#dae8fc;strokeColor=#6c8ebf;" vertex="1" parent="1">
          <mxGeometry x="290" y="490" width="120" height="60" as="geometry" />
        </mxCell>
        <mxCell id="RZjBoXwKES9GOJnDem_J-65" value="Gráfico de barras raqueamento do maior índice" style="rounded=1;whiteSpace=wrap;html=1;fillColor=#dae8fc;strokeColor=#6c8ebf;" vertex="1" parent="1">
          <mxGeometry x="160" y="490" width="120" height="60" as="geometry" />
        </mxCell>
        <mxCell id="RZjBoXwKES9GOJnDem_J-93" style="edgeStyle=orthogonalEdgeStyle;rounded=0;orthogonalLoop=1;jettySize=auto;html=1;exitX=0;exitY=0.5;exitDx=0;exitDy=0;entryX=1;entryY=0.5;entryDx=0;entryDy=0;" edge="1" parent="1" source="RZjBoXwKES9GOJnDem_J-66" target="RZjBoXwKES9GOJnDem_J-67">
          <mxGeometry relative="1" as="geometry" />
        </mxCell>
        <mxCell id="RZjBoXwKES9GOJnDem_J-96" style="edgeStyle=orthogonalEdgeStyle;rounded=0;orthogonalLoop=1;jettySize=auto;html=1;exitX=0.5;exitY=1;exitDx=0;exitDy=0;entryX=0.5;entryY=0;entryDx=0;entryDy=0;" edge="1" parent="1" source="RZjBoXwKES9GOJnDem_J-66" target="RZjBoXwKES9GOJnDem_J-68">
          <mxGeometry relative="1" as="geometry" />
        </mxCell>
        <mxCell id="RZjBoXwKES9GOJnDem_J-66" value="Gera mapa coroplético Brasil" style="rounded=1;whiteSpace=wrap;html=1;fillColor=#dae8fc;strokeColor=#6c8ebf;" vertex="1" parent="1">
          <mxGeometry x="420" y="690" width="120" height="60" as="geometry" />
        </mxCell>
        <mxCell id="RZjBoXwKES9GOJnDem_J-94" style="edgeStyle=orthogonalEdgeStyle;rounded=0;orthogonalLoop=1;jettySize=auto;html=1;exitX=0;exitY=0.5;exitDx=0;exitDy=0;entryX=1;entryY=0.5;entryDx=0;entryDy=0;" edge="1" parent="1" source="RZjBoXwKES9GOJnDem_J-67" target="RZjBoXwKES9GOJnDem_J-74">
          <mxGeometry relative="1" as="geometry" />
        </mxCell>
        <mxCell id="RZjBoXwKES9GOJnDem_J-67" value="Gera histograma amenidades subcategorias" style="rounded=1;whiteSpace=wrap;html=1;fillColor=#dae8fc;strokeColor=#6c8ebf;" vertex="1" parent="1">
          <mxGeometry x="290" y="690" width="120" height="60" as="geometry" />
        </mxCell>
        <mxCell id="RZjBoXwKES9GOJnDem_J-97" style="edgeStyle=orthogonalEdgeStyle;rounded=0;orthogonalLoop=1;jettySize=auto;html=1;exitX=0;exitY=0.5;exitDx=0;exitDy=0;entryX=1;entryY=0.5;entryDx=0;entryDy=0;" edge="1" parent="1" source="RZjBoXwKES9GOJnDem_J-68" target="RZjBoXwKES9GOJnDem_J-69">
          <mxGeometry relative="1" as="geometry" />
        </mxCell>
        <mxCell id="RZjBoXwKES9GOJnDem_J-68" value="Gera histograma amenidades categoria" style="rounded=1;whiteSpace=wrap;html=1;fillColor=#dae8fc;strokeColor=#6c8ebf;" vertex="1" parent="1">
          <mxGeometry x="420" y="760" width="120" height="60" as="geometry" />
        </mxCell>
        <mxCell id="RZjBoXwKES9GOJnDem_J-98" style="edgeStyle=orthogonalEdgeStyle;rounded=0;orthogonalLoop=1;jettySize=auto;html=1;exitX=0;exitY=0.5;exitDx=0;exitDy=0;entryX=1;entryY=0.5;entryDx=0;entryDy=0;" edge="1" parent="1" source="RZjBoXwKES9GOJnDem_J-69" target="RZjBoXwKES9GOJnDem_J-73">
          <mxGeometry relative="1" as="geometry" />
        </mxCell>
        <mxCell id="RZjBoXwKES9GOJnDem_J-69" value="Cartões de informações da amenidades" style="rounded=1;whiteSpace=wrap;html=1;fillColor=#dae8fc;strokeColor=#6c8ebf;" vertex="1" parent="1">
          <mxGeometry x="290" y="760" width="120" height="60" as="geometry" />
        </mxCell>
        <mxCell id="RZjBoXwKES9GOJnDem_J-72" value="Gera histograma amenidades categoria" style="rounded=1;whiteSpace=wrap;html=1;fillColor=#dae8fc;strokeColor=#6c8ebf;" vertex="1" parent="1">
          <mxGeometry x="30" y="690" width="120" height="60" as="geometry" />
        </mxCell>
        <mxCell id="RZjBoXwKES9GOJnDem_J-73" value="Gráfico de barras raqueamento do menor índice" style="rounded=1;whiteSpace=wrap;html=1;fillColor=#dae8fc;strokeColor=#6c8ebf;" vertex="1" parent="1">
          <mxGeometry x="160" y="760" width="120" height="60" as="geometry" />
        </mxCell>
        <mxCell id="RZjBoXwKES9GOJnDem_J-95" style="edgeStyle=orthogonalEdgeStyle;rounded=0;orthogonalLoop=1;jettySize=auto;html=1;exitX=0;exitY=0.5;exitDx=0;exitDy=0;entryX=1;entryY=0.5;entryDx=0;entryDy=0;" edge="1" parent="1" source="RZjBoXwKES9GOJnDem_J-74" target="RZjBoXwKES9GOJnDem_J-72">
          <mxGeometry relative="1" as="geometry" />
        </mxCell>
        <mxCell id="RZjBoXwKES9GOJnDem_J-74" value="Gráfico de barras raqueamento do maior índice" style="rounded=1;whiteSpace=wrap;html=1;fillColor=#dae8fc;strokeColor=#6c8ebf;" vertex="1" parent="1">
          <mxGeometry x="160" y="690" width="120" height="60" as="geometry" />
        </mxCell>
        <mxCell id="RZjBoXwKES9GOJnDem_J-99" style="edgeStyle=orthogonalEdgeStyle;rounded=0;orthogonalLoop=1;jettySize=auto;html=1;exitX=0;exitY=0.5;exitDx=0;exitDy=0;entryX=1;entryY=0.5;entryDx=0;entryDy=0;" edge="1" parent="1" source="RZjBoXwKES9GOJnDem_J-75" target="RZjBoXwKES9GOJnDem_J-76">
          <mxGeometry relative="1" as="geometry" />
        </mxCell>
        <mxCell id="RZjBoXwKES9GOJnDem_J-102" style="edgeStyle=orthogonalEdgeStyle;rounded=0;orthogonalLoop=1;jettySize=auto;html=1;exitX=0.5;exitY=1;exitDx=0;exitDy=0;" edge="1" parent="1" source="RZjBoXwKES9GOJnDem_J-75" target="RZjBoXwKES9GOJnDem_J-77">
          <mxGeometry relative="1" as="geometry" />
        </mxCell>
        <mxCell id="RZjBoXwKES9GOJnDem_J-75" value="Gera mapa coroplético Brasil" style="rounded=1;whiteSpace=wrap;html=1;fillColor=#dae8fc;strokeColor=#6c8ebf;" vertex="1" parent="1">
          <mxGeometry x="412.5" y="970" width="120" height="60" as="geometry" />
        </mxCell>
        <mxCell id="RZjBoXwKES9GOJnDem_J-100" style="edgeStyle=orthogonalEdgeStyle;rounded=0;orthogonalLoop=1;jettySize=auto;html=1;exitX=0;exitY=0.5;exitDx=0;exitDy=0;" edge="1" parent="1" source="RZjBoXwKES9GOJnDem_J-76" target="RZjBoXwKES9GOJnDem_J-81">
          <mxGeometry relative="1" as="geometry" />
        </mxCell>
        <mxCell id="RZjBoXwKES9GOJnDem_J-76" value="Gera histograma amenidades subcategorias" style="rounded=1;whiteSpace=wrap;html=1;fillColor=#dae8fc;strokeColor=#6c8ebf;" vertex="1" parent="1">
          <mxGeometry x="282.5" y="970" width="120" height="60" as="geometry" />
        </mxCell>
        <mxCell id="RZjBoXwKES9GOJnDem_J-115" style="edgeStyle=orthogonalEdgeStyle;rounded=0;orthogonalLoop=1;jettySize=auto;html=1;exitX=0;exitY=0.5;exitDx=0;exitDy=0;entryX=1;entryY=0.5;entryDx=0;entryDy=0;" edge="1" parent="1" source="RZjBoXwKES9GOJnDem_J-77" target="RZjBoXwKES9GOJnDem_J-78">
          <mxGeometry relative="1" as="geometry" />
        </mxCell>
        <mxCell id="RZjBoXwKES9GOJnDem_J-77" value="Gera histograma amenidades categoria" style="rounded=1;whiteSpace=wrap;html=1;fillColor=#dae8fc;strokeColor=#6c8ebf;" vertex="1" parent="1">
          <mxGeometry x="412.5" y="1042.5" width="120" height="65" as="geometry" />
        </mxCell>
        <mxCell id="RZjBoXwKES9GOJnDem_J-105" style="edgeStyle=orthogonalEdgeStyle;rounded=0;orthogonalLoop=1;jettySize=auto;html=1;exitX=0;exitY=0.5;exitDx=0;exitDy=0;entryX=1;entryY=0.5;entryDx=0;entryDy=0;" edge="1" parent="1" source="RZjBoXwKES9GOJnDem_J-78" target="RZjBoXwKES9GOJnDem_J-80">
          <mxGeometry relative="1" as="geometry" />
        </mxCell>
        <mxCell id="RZjBoXwKES9GOJnDem_J-78" value="Cartões de informações da amenidades" style="rounded=1;whiteSpace=wrap;html=1;fillColor=#dae8fc;strokeColor=#6c8ebf;" vertex="1" parent="1">
          <mxGeometry x="282.5" y="1045" width="120" height="60" as="geometry" />
        </mxCell>
        <mxCell id="RZjBoXwKES9GOJnDem_J-79" value="Gera histograma amenidades categoria" style="rounded=1;whiteSpace=wrap;html=1;fillColor=#dae8fc;strokeColor=#6c8ebf;" vertex="1" parent="1">
          <mxGeometry x="22.5" y="970" width="120" height="60" as="geometry" />
        </mxCell>
        <mxCell id="RZjBoXwKES9GOJnDem_J-80" value="Gráfico de barras raqueamento do menor índice" style="rounded=1;whiteSpace=wrap;html=1;fillColor=#dae8fc;strokeColor=#6c8ebf;" vertex="1" parent="1">
          <mxGeometry x="152.5" y="1045" width="120" height="60" as="geometry" />
        </mxCell>
        <mxCell id="RZjBoXwKES9GOJnDem_J-116" style="edgeStyle=orthogonalEdgeStyle;rounded=0;orthogonalLoop=1;jettySize=auto;html=1;exitX=0;exitY=0.5;exitDx=0;exitDy=0;entryX=1;entryY=0.5;entryDx=0;entryDy=0;" edge="1" parent="1" source="RZjBoXwKES9GOJnDem_J-81" target="RZjBoXwKES9GOJnDem_J-79">
          <mxGeometry relative="1" as="geometry" />
        </mxCell>
        <mxCell id="RZjBoXwKES9GOJnDem_J-81" value="Gráfico de barras raqueamento do maior índice" style="rounded=1;whiteSpace=wrap;html=1;fillColor=#dae8fc;strokeColor=#6c8ebf;" vertex="1" parent="1">
          <mxGeometry x="152.5" y="970" width="120" height="60" as="geometry" />
        </mxCell>
        <mxCell id="RZjBoXwKES9GOJnDem_J-112" style="edgeStyle=orthogonalEdgeStyle;rounded=0;orthogonalLoop=1;jettySize=auto;html=1;exitX=0;exitY=0.5;exitDx=0;exitDy=0;exitPerimeter=0;entryX=1;entryY=0.5;entryDx=0;entryDy=0;entryPerimeter=0;" edge="1" parent="1" source="RZjBoXwKES9GOJnDem_J-47" target="RZjBoXwKES9GOJnDem_J-45">
          <mxGeometry relative="1" as="geometry" />
        </mxCell>
        <mxCell id="RZjBoXwKES9GOJnDem_J-113" value="Sim" style="edgeLabel;html=1;align=center;verticalAlign=middle;resizable=0;points=[];" vertex="1" connectable="0" parent="RZjBoXwKES9GOJnDem_J-112">
          <mxGeometry x="-0.2333" y="2" relative="1" as="geometry">
            <mxPoint as="offset" />
          </mxGeometry>
        </mxCell>
        <mxCell id="RZjBoXwKES9GOJnDem_J-123" style="edgeStyle=orthogonalEdgeStyle;rounded=0;orthogonalLoop=1;jettySize=auto;html=1;exitX=0;exitY=0.5;exitDx=0;exitDy=0;exitPerimeter=0;entryX=1;entryY=0.5;entryDx=0;entryDy=0;entryPerimeter=0;" edge="1" parent="1" source="RZjBoXwKES9GOJnDem_J-35" target="RZjBoXwKES9GOJnDem_J-43">
          <mxGeometry relative="1" as="geometry" />
        </mxCell>
        <mxCell id="RZjBoXwKES9GOJnDem_J-124" value="Sim" style="edgeLabel;html=1;align=center;verticalAlign=middle;resizable=0;points=[];" vertex="1" connectable="0" parent="RZjBoXwKES9GOJnDem_J-123">
          <mxGeometry x="-0.2857" y="4" relative="1" as="geometry">
            <mxPoint as="offset" />
          </mxGeometry>
        </mxCell>
        <mxCell id="RZjBoXwKES9GOJnDem_J-125" style="edgeStyle=orthogonalEdgeStyle;rounded=0;orthogonalLoop=1;jettySize=auto;html=1;entryX=0.5;entryY=0;entryDx=0;entryDy=0;entryPerimeter=0;" edge="1" parent="1" source="RZjBoXwKES9GOJnDem_J-47" target="RZjBoXwKES9GOJnDem_J-23">
          <mxGeometry relative="1" as="geometry">
            <Array as="points">
              <mxPoint x="790" y="910" />
              <mxPoint x="790" y="230" />
              <mxPoint x="160" y="230" />
            </Array>
          </mxGeometry>
        </mxCell>
        <mxCell id="RZjBoXwKES9GOJnDem_J-126" value="Não" style="edgeLabel;html=1;align=center;verticalAlign=middle;resizable=0;points=[];" vertex="1" connectable="0" parent="RZjBoXwKES9GOJnDem_J-125">
          <mxGeometry x="-0.3678" y="2" relative="1" as="geometry">
            <mxPoint as="offset" />
          </mxGeometry>
        </mxCell>
        <mxCell id="RZjBoXwKES9GOJnDem_J-128" value="" style="endArrow=none;dashed=1;html=1;rounded=0;" edge="1" parent="1">
          <mxGeometry width="50" height="50" relative="1" as="geometry">
            <mxPoint y="570" as="sourcePoint" />
            <mxPoint x="560" y="570" as="targetPoint" />
          </mxGeometry>
        </mxCell>
        <mxCell id="RZjBoXwKES9GOJnDem_J-130" value="" style="endArrow=none;dashed=1;html=1;rounded=0;" edge="1" parent="1">
          <mxGeometry width="50" height="50" relative="1" as="geometry">
            <mxPoint y="570" as="sourcePoint" />
            <mxPoint y="340" as="targetPoint" />
          </mxGeometry>
        </mxCell>
        <mxCell id="RZjBoXwKES9GOJnDem_J-131" value="" style="endArrow=none;dashed=1;html=1;rounded=0;" edge="1" parent="1">
          <mxGeometry width="50" height="50" relative="1" as="geometry">
            <mxPoint y="340" as="sourcePoint" />
            <mxPoint x="560" y="340" as="targetPoint" />
          </mxGeometry>
        </mxCell>
        <mxCell id="RZjBoXwKES9GOJnDem_J-132" value="" style="endArrow=none;dashed=1;html=1;rounded=0;" edge="1" parent="1">
          <mxGeometry width="50" height="50" relative="1" as="geometry">
            <mxPoint x="560" y="570" as="sourcePoint" />
            <mxPoint x="560" y="340" as="targetPoint" />
          </mxGeometry>
        </mxCell>
        <mxCell id="RZjBoXwKES9GOJnDem_J-133" value="" style="endArrow=none;dashed=1;html=1;rounded=0;" edge="1" parent="1">
          <mxGeometry width="50" height="50" relative="1" as="geometry">
            <mxPoint y="680" as="sourcePoint" />
            <mxPoint x="560" y="680" as="targetPoint" />
          </mxGeometry>
        </mxCell>
        <mxCell id="RZjBoXwKES9GOJnDem_J-134" value="" style="endArrow=none;dashed=1;html=1;rounded=0;" edge="1" parent="1">
          <mxGeometry width="50" height="50" relative="1" as="geometry">
            <mxPoint y="850" as="sourcePoint" />
            <mxPoint y="680" as="targetPoint" />
          </mxGeometry>
        </mxCell>
        <mxCell id="RZjBoXwKES9GOJnDem_J-135" value="" style="endArrow=none;dashed=1;html=1;rounded=0;" edge="1" parent="1">
          <mxGeometry width="50" height="50" relative="1" as="geometry">
            <mxPoint x="560" y="850" as="sourcePoint" />
            <mxPoint x="560" y="680" as="targetPoint" />
          </mxGeometry>
        </mxCell>
        <mxCell id="RZjBoXwKES9GOJnDem_J-136" value="" style="endArrow=none;dashed=1;html=1;rounded=0;" edge="1" parent="1">
          <mxGeometry width="50" height="50" relative="1" as="geometry">
            <mxPoint y="850" as="sourcePoint" />
            <mxPoint x="560" y="850" as="targetPoint" />
          </mxGeometry>
        </mxCell>
        <mxCell id="RZjBoXwKES9GOJnDem_J-140" style="edgeStyle=orthogonalEdgeStyle;rounded=0;orthogonalLoop=1;jettySize=auto;html=1;exitX=0;exitY=0.5;exitDx=0;exitDy=0;entryX=1;entryY=0.5;entryDx=0;entryDy=0;" edge="1" parent="1" target="RZjBoXwKES9GOJnDem_J-149">
          <mxGeometry relative="1" as="geometry">
            <mxPoint x="330" y="1000" as="sourcePoint" />
          </mxGeometry>
        </mxCell>
        <mxCell id="RZjBoXwKES9GOJnDem_J-144" style="edgeStyle=orthogonalEdgeStyle;rounded=0;orthogonalLoop=1;jettySize=auto;html=1;exitX=0;exitY=0.5;exitDx=0;exitDy=0;entryX=1;entryY=0.5;entryDx=0;entryDy=0;" edge="1" parent="1" target="RZjBoXwKES9GOJnDem_J-147">
          <mxGeometry relative="1" as="geometry">
            <mxPoint x="330" y="1070" as="sourcePoint" />
          </mxGeometry>
        </mxCell>
        <mxCell id="RZjBoXwKES9GOJnDem_J-148" style="edgeStyle=orthogonalEdgeStyle;rounded=0;orthogonalLoop=1;jettySize=auto;html=1;exitX=0;exitY=0.5;exitDx=0;exitDy=0;entryX=1;entryY=0.5;entryDx=0;entryDy=0;" edge="1" parent="1" target="RZjBoXwKES9GOJnDem_J-146">
          <mxGeometry relative="1" as="geometry">
            <mxPoint x="200" y="1000" as="sourcePoint" />
          </mxGeometry>
        </mxCell>
        <mxCell id="RZjBoXwKES9GOJnDem_J-150" value="" style="endArrow=none;dashed=1;html=1;rounded=0;" edge="1" parent="1">
          <mxGeometry width="50" height="50" relative="1" as="geometry">
            <mxPoint y="960" as="sourcePoint" />
            <mxPoint x="560" y="960" as="targetPoint" />
          </mxGeometry>
        </mxCell>
        <mxCell id="RZjBoXwKES9GOJnDem_J-151" value="" style="endArrow=none;dashed=1;html=1;rounded=0;" edge="1" parent="1">
          <mxGeometry width="50" height="50" relative="1" as="geometry">
            <mxPoint y="1130" as="sourcePoint" />
            <mxPoint y="960" as="targetPoint" />
          </mxGeometry>
        </mxCell>
        <mxCell id="RZjBoXwKES9GOJnDem_J-152" value="" style="endArrow=none;dashed=1;html=1;rounded=0;" edge="1" parent="1">
          <mxGeometry width="50" height="50" relative="1" as="geometry">
            <mxPoint x="560" y="1130" as="sourcePoint" />
            <mxPoint x="560" y="960" as="targetPoint" />
          </mxGeometry>
        </mxCell>
        <mxCell id="RZjBoXwKES9GOJnDem_J-153" value="" style="endArrow=none;dashed=1;html=1;rounded=0;" edge="1" parent="1">
          <mxGeometry width="50" height="50" relative="1" as="geometry">
            <mxPoint y="1130" as="sourcePoint" />
            <mxPoint x="560" y="1130" as="targetPoint" />
          </mxGeometry>
        </mxCell>
      </root>
    </mxGraphModel>
  </diagram>
</mxfile>
